#!OML:ASF F:\VICON\USERDATA\INSTALL\rory3\rory3.ASF
:FULLY-SPECIFIED
:DEGREES
100
root 0.25156090417779936 17.84390969461457 42.107197851779944 -4.161626127260584 -2.544807665034452 -0.5134685636677587
lfemur -7.152916898439384 -2.3701368677912997 -23.97956519431727
ltibia 28.783555560682935
lfoot -12.781514791412434 -0.010203337874389984
ltoes 3.273853883114012
rfemur -23.803382933048773 -5.608869441151349 22.409000247460476
rtibia 71.05777246974172
rfoot -3.0637015755999424 -5.591158951952271
rtoes 11.686602707170476
lowerback 1.0 0.5821995733572123 -0.14585280111007637
upperback 0.7543234771601288 1.0342728414856768 1.2104877649180885
thorax -5.173271053214507 0.43481855394285784 1.15483822831774
lowerneck -15.884758711045075 -2.934071370344242 -2.810754608972425
upperneck 20.57092200729647 -3.6497221616044766 1.9225681170590918
head 9.134165079904243 -1.7213446588555872 0.6984880671538626
lclavicle 1.0178772667634502e-15 -1.3483165332664614e-15
lhumerus -32.334037973342106 5.570731365573348 80.60334754454611
lradius 22.209316409776047
lwrist 5.2355971084197535
lhand -28.136063987097955 21.82727908674326
lfingers nan
lthumb -1.4130927226749361 51.79022139809145
rclavicle 7.566286489709926e-16 -9.065369523863929e-16
rhumerus -28.29472759139764 -17.349941611208834 -80.81282493303098
rradius 32.4651764450732
rwrist 5.132934904192846
rhand -18.87623557359346 1.0
rfingers nan
rthumb 7.324142227588894 -5.726525556086617
101
root 0.21973927726901013 17.808514420126716 41.056033721749635 -4.078360431004478 -2.112787562950295 -0.2955322601818544
lfemur -4.52174870467649 -2.780357595289667 -25.330462771453654
ltibia 28.542006940520302
lfoot -12.73921336316165 1.1912213249813788
ltoes 3.4184363779294964
rfemur -27.290050233614476 -4.955855434934783 21.590756927140582
rtibia 65.97050471725527
rfoot -6.984228453705401 -5.631524619393464
rtoes 8.01107517845269
lowerback 1.0 0.37048741217885023 -1.2097996068170505
upperback 0.819642294015248 0.5554926982598357 1.179139309761644
thorax -5.149479186091444 0.23913896066865334 1.6606987187132147
lowerneck -16.125107101297424 -2.951884292702911 -2.866038213291491
upperneck 20.625984368997496 -3.7479876672557686 1.809749740157557
head 9.278123146942583 -1.7780692540670753 0.6199919049352518
lclavicle 4.221773016480544e-15 -3.1345481569912513e-16
lhumerus -30.678168841796587 3.6356441612135293 80.93132267561536
lradius 24.228704398539765
lwrist 4.520333328155577
lhand -27.71715093220355 21.51985441224813
lfingers nan
lthumb -1.4683792662833648 50.90665740927815
rclavicle 2.4359683542274815e-15 9.06991732628725e-17
rhumerus -28.985689765875257 -17.09615915363954 -80.78111699075114
rradius 32.471010266357965
rwrist 4.330210708247915
rhand -19.179021831190923 1.0
rfingers nan
rthumb 7.120944542995899 -6.093282513734954
102
root 0.22326097805746958 17.797745365728495 43.1498608140464 -3.685969447245826 -1.2314913289324911 0.5677445361098299
lfemur -1.896325755152124 -3.0823044903331542 -26.50973860305335
ltibia 27.072138839683245
lfoot -13.799793192930105 1.0213866912868164
ltoes 3.477893048036008
rfemur -29.401721539067722 -3.9810201143975132 20.83244432853826
rtibia 58.14938070246329
rfoot -8.677902383844307 -8.152599541290435
rtoes 3.4295356107686112
lowerback 1.0 0.049504395226416725 -2.250563509426456
upperback 0.8517815933747572 -0.05942451128250287 1.0758197356190735
thorax -5.351311654620037 -0.015610842551479515 2.394666880644734
lowerneck -15.929007520474036 -2.902166008341381 -3.280501232722113
upperneck 20.28954221782643 -3.7287013163288116 2.8946827917305877
head 9.126721703419914 -1.7323811564954896 1.1571919663035168
lclavicle 4.356581586710807e-17 -1.02246408105019e-15
lhumerus -28.65242838582142 1.843166288737828 81.38861027237519
lradius 26.849960413741265
lwrist 5.334137223811311
lhand -27.85614302755677 23.09272880685251
lfingers nan
lthumb -1.5850795897261323 52.726167725106095
rclavicle -7.259783548573814e-16 -2.579971382202901e-15
rhumerus -30.265774947771884 -16.637994101479414 -80.5463734494494
rradius 32.432243034012885
rwrist 4.076593310953752
rhand -19.11148168253017 1.0
rfingers nan
rthumb 7.210603546834683 -7.313435346807582
103
root 0.18410278553776424 17.760800691717517 42.68424811029464 -3.3586579566603123 -0.8111928312351149 0.7845004357735814
lfemur 1.532851286198385 -2.7331664319093685 -27.323414517401748
ltibia 24.478755519134907
lfoot -12.849327315059838 1.1707721586481337
ltoes 3.777830529255067
rfemur -30.28297256384397 -2.2101131308587045 19.612110172082648
rtibia 47.583293830976004
rfoot -8.088041833302519 -11.78312621215002
rtoes 2.4319051408189574
lowerback 1.0 -0.14748921692445424 -3.3193811770530024
upperback 1.0489271190631133 -0.5382471228314776 1.024707195595373
thorax -4.835556162373451 -0.2251452033856902 3.013329546750235
lowerneck -16.257201747090456 -2.97495593314501 -3.4432643195115187
upperneck 19.870709604513277 -4.113461632501756 3.2789617529478043
head 9.14639348050289 -1.8772832197411113 1.3014217441676414
lclavicle 8.529937901963376e-16 -5.409570554273123e-16
lhumerus -26.708254863729355 0.619635712499738 81.28915614450884
lradius 28.856195203833945
lwrist 6.417857977052105
lhand -27.532763289383407 22.570851283581153
lfingers nan
lthumb -0.9156171936398394 53.044230036374564
rclavicle 6.775183760786934e-16 -1.5974305171336995e-16
rhumerus -30.679927119486987 -16.419902004831346 -80.55103694201436
rradius 32.09737991369903
rwrist 4.010187338057863
rhand -18.763382942107565 1.0
rfingers nan
rthumb 7.446891077279144 -9.827625555488206
